<svg width="1994" height="1210" xmlns="http://www.w3.org/2000/svg" preserveAspectRatio="xMinYMin meet">
 <g>
  <title>Layer 1</title>
  <path id="svg_4" d="m431.75,224.25c0,0 564,980 564,980c0,0 116,8 115.00002,5.00003c0.99998,2.99997 -503.00002,-873.00003 -503.00002,-873.00003c0,0 144,4 143.00002,1.00001c0.99998,2.99999 388.99998,650.99999 388.00001,648.00002c0.99997,2.99998 560.99997,-929.00002 560.99997,-929.00002c0,0 -128,0 -128.99996,-3c0.99996,3 -299.00004,511 -299.00004,511c0,0 -128,-224 -128.99997,-226.99999c0.99997,2.99999 148.99997,2.99999 148,0c0.99997,2.99999 172.99997,-289.00001 172,-292.00001c0.99997,3 -1127.00003,11 -1128.00003,8c0.99999,3 64.99999,111 64.99999,111c0,0 888,0 887.00003,-3c0.99997,3 -55.00003,91 -55.00003,91c0,0 -264,-8 -264,-8c0,0 240,428 240,428c0,0 -68,112 -68,112c0,0 -332,-556 -332.99998,-559c0.99998,3 -375.00002,-1 -375.00002,-1z" opacity="NaN" stroke-width="2.6247" stroke="#ffffff" fill="#ffffff"/>
 </g>

</svg>